<?xml version="1.0" standalone="no"?>
<!DOCTYPE svg PUBLIC "-//W3C//DTD SVG 20010904//EN"
 "http://www.w3.org/TR/2001/REC-SVG-20010904/DTD/svg10.dtd">
<svg version="1.0" xmlns="http://www.w3.org/2000/svg"
 width="200.000000pt" height="200.000000pt" viewBox="0 0 200.000000 200.000000"
 preserveAspectRatio="xMidYMid meet">

<g transform="translate(0.000000,200.000000) scale(0.100000,-0.100000)"
fill="#000000" stroke="none">
<path d="M1133 1235 c-25 -28 -7 -85 27 -85 18 0 40 27 40 50 0 42 -42 64 -67
35z"/>
<path d="M250 1120 c0 -5 -5 -10 -10 -10 -6 0 -22 -11 -35 -25 -24 -23 -25
-29 -25 -160 l0 -135 40 0 40 0 0 106 c0 106 7 130 41 134 31 5 39 -1 39 -30
0 -27 -3 -30 -30 -30 -29 0 -30 -1 -30 -50 l0 -50 35 0 c19 0 35 5 35 10 0 6
7 10 16 10 18 0 53 38 54 58 0 7 5 10 10 7 6 -4 10 13 10 45 0 32 -4 49 -10
45 -5 -3 -10 3 -10 15 0 25 -22 50 -44 50 -9 0 -16 5 -16 10 0 6 -25 10 -55
10 -30 0 -55 -4 -55 -10z"/>
<path d="M540 1121 c0 -5 -9 -11 -20 -14 -11 -3 -20 -12 -20 -21 0 -9 -5 -16
-10 -16 -7 0 -10 -36 -9 -100 l1 -100 35 0 c51 0 63 18 63 94 0 59 2 66 20 66
17 0 20 7 20 50 l0 50 -40 0 c-22 0 -40 -4 -40 -9z"/>
<path d="M720 1120 c0 -5 -7 -10 -15 -10 -9 0 -27 -11 -41 -25 -22 -23 -25
-33 -23 -88 2 -49 7 -66 25 -84 13 -13 30 -23 39 -23 8 0 15 -4 15 -10 0 -5
18 -10 40 -10 22 0 40 5 40 10 0 6 8 10 18 10 11 0 33 16 50 35 26 28 32 43
32 80 0 25 -4 45 -10 45 -5 0 -10 9 -10 19 0 12 -12 25 -30 33 -16 7 -30 16
-30 20 0 5 -22 8 -50 8 -27 0 -50 -4 -50 -10z m80 -120 c0 -26 -4 -30 -26 -30
-31 0 -56 23 -48 44 4 10 18 16 40 16 31 0 34 -3 34 -30z"/>
<path d="M1000 1121 c0 -5 -9 -11 -20 -14 -11 -3 -20 -12 -20 -21 0 -9 -5 -16
-10 -16 -7 0 -10 -35 -8 -97 l3 -98 33 -3 c46 -5 64 18 62 76 -4 74 -2 82 20
82 17 0 20 7 20 50 l0 50 -40 0 c-22 0 -40 -4 -40 -9z"/>
<path d="M1120 1111 c0 -11 -6 -22 -12 -24 -10 -4 -9 -8 2 -16 13 -10 13 -11
0 -11 -9 0 -11 -3 -5 -8 15 -10 16 -55 2 -64 -9 -6 -8 -8 3 -8 13 0 13 -2 1
-9 -12 -8 -12 -12 -2 -25 11 -13 11 -19 1 -31 -9 -10 -9 -15 -1 -15 6 0 11 -7
11 -15 0 -11 11 -15 40 -15 l40 0 0 130 0 130 -40 0 c-33 0 -40 -3 -40 -19z"/>
<path d="M1325 1120 c3 -5 1 -10 -5 -10 -6 0 -22 -11 -35 -25 -21 -20 -25 -34
-25 -85 0 -80 26 -110 95 -110 38 0 45 -3 45 -20 0 -17 -7 -20 -40 -20 -39 0
-40 -1 -40 -36 0 -19 6 -42 14 -50 17 -16 66 -19 66 -4 0 6 7 10 15 10 9 0 31
16 50 35 l35 34 0 111 0 111 -35 34 c-31 32 -40 35 -90 35 -35 0 -54 -4 -50
-10z m75 -107 c0 -8 5 -11 10 -8 6 3 10 1 10 -4 0 -6 -6 -11 -12 -12 -10 0
-10 -2 0 -6 14 -6 16 -63 2 -63 -6 0 -8 11 -6 25 4 20 1 25 -15 25 -24 0 -49
22 -49 44 0 9 9 16 21 16 13 0 18 4 13 13 -5 8 -2 8 9 -2 9 -7 17 -20 17 -28z"/>
<path d="M1597 1096 c-20 -18 -37 -43 -37 -54 0 -11 -5 -22 -11 -24 -9 -3 -9
-9 0 -25 6 -12 11 -29 11 -38 0 -20 44 -65 65 -65 8 0 15 -4 15 -10 0 -5 18
-10 40 -10 22 0 40 5 40 10 0 6 7 10 15 10 20 0 65 45 65 65 0 8 5 15 10 15 6
0 10 14 10 30 0 17 -4 30 -10 30 -5 0 -10 7 -10 15 0 23 -30 65 -46 65 -8 0
-14 5 -14 10 0 6 -24 10 -53 10 -46 0 -58 -4 -90 -34z m123 -97 c0 -29 -2 -30
-37 -27 -33 3 -38 7 -41 31 -3 26 -1 27 37 27 39 0 41 -1 41 -31z"/>
</g>
</svg>
